<?xml version="1.0" encoding="UTF-8"?>
<svg width="32px" height="32px" viewBox="0 0 32 32" version="1.1" xmlns="http://www.w3.org/2000/svg" xmlns:xlink="http://www.w3.org/1999/xlink">
    <!-- Generator: Sketch 61.2 (89653) - https://sketch.com -->
    <title>build-your-cv-icon</title>
    <desc>Created with Sketch.</desc>
    <g id="build-your-cv-icon" stroke="none" stroke-width="1" fill="none" fill-rule="evenodd">
        <path d="M28.0896226,-5.15143483e-13 C29.1430047,-5.15143483e-13 30,0.838353998 30,1.868823 L30,30.0257562 C30,31.0562252 29.1430047,31.8945792 28.0896226,31.8945792 L4.91037736,31.8945792 C3.85699528,31.8945792 3,31.0562252 3,30.0257562 L3,13.3516813 C3,13.0076933 3.28515566,12.7287403 3.63679245,12.7287403 C3.98842925,12.7287403 4.27358491,13.0076933 4.27358491,13.3516813 L4.27358491,30.0257562 C4.27358491,30.3692459 4.55925,30.6486972 4.91037736,30.6486972 L28.0896226,30.6486972 C28.44075,30.6486972 28.7264151,30.3692459 28.7264151,30.0257562 L28.7264151,1.868823 C28.7264151,1.52533333 28.44075,1.245882 28.0896226,1.245882 L15.2052099,1.245882 C14.8535731,1.245882 14.5684175,0.966929021 14.5684175,0.622941 C14.5684175,0.27895298 14.8535731,-5.15143483e-13 15.2052099,-5.15143483e-13 L28.0896226,-5.15143483e-13 Z M22.3812241,24.7931764 C22.7328608,24.7931764 23.0180165,25.0721294 23.0180165,25.4161174 C23.0180165,25.7601054 22.7329245,26.0390584 22.3812241,26.0390584 L13.3387712,26.0390584 C12.9871344,26.0390584 12.7019788,25.7601054 12.7019788,25.4161174 C12.7019788,25.0721294 12.9871344,24.7931764 13.3387712,24.7931764 L22.3812241,24.7931764 Z M10.6185849,24.7930518 C10.7866981,24.7930518 10.9503538,24.8596442 11.0687972,24.9755735 C11.1878774,25.0914406 11.2553774,25.2521593 11.2553774,25.4159928 C11.2553774,25.5804492 11.1878774,25.7405451 11.0687972,25.8563498 C10.9503538,25.9722791 10.7860613,26.0389338 10.6185849,26.0389338 C10.4511085,26.0389338 10.286816,25.9722791 10.1683726,25.8563498 C10.0499929,25.7405451 9.98179245,25.5803869 9.98179245,25.4159928 C9.98179245,25.2521593 10.0499292,25.0914406 10.1683726,24.9755735 C10.286816,24.8597065 10.4511085,24.7930518 10.6185849,24.7930518 Z M10.6185849,21.3045822 C10.7860613,21.3045822 10.9503538,21.3711746 11.0687972,21.4871039 C11.1878774,21.6029709 11.2553774,21.7636897 11.2553774,21.9275232 C11.2553774,22.0913567 11.1878774,22.2520755 11.0687972,22.3678802 C10.9503538,22.4838095 10.7860613,22.5504642 10.6185849,22.5504642 C10.4511085,22.5504642 10.286816,22.4838095 10.1683726,22.3678802 C10.0499929,22.2520755 9.98179245,22.0919173 9.98179245,21.9275232 C9.98179245,21.7636897 10.0499292,21.6029709 10.1683726,21.4871039 C10.286816,21.3712369 10.4511085,21.3045822 10.6185849,21.3045822 Z M22.3812241,21.3047068 C22.7328608,21.3047068 23.0180165,21.5836598 23.0180165,21.9276478 C23.0180165,22.2716358 22.7329245,22.5505888 22.3812241,22.5505888 L13.3387712,22.5505888 C12.9871344,22.5505888 12.7019788,22.2716358 12.7019788,21.9276478 C12.7019788,21.5836598 12.9871344,21.3047068 13.3387712,21.3047068 L22.3812241,21.3047068 Z M16.5,2.491764 C21.1700448,2.491764 24.9693396,6.20854148 24.9693396,10.7770039 C24.9693396,15.3454663 21.1699811,19.0621815 16.4999363,19.0621815 C14.4846156,19.0621815 12.5318915,18.3578844 11.0016156,17.0790488 C9.48853302,15.8146655 8.47495047,14.0664438 8.14751179,12.1565067 C8.08937264,11.8171908 8.32339387,11.4960024 8.67025472,11.4391279 C9.01679717,11.382378 9.34544575,11.6112465 9.40358491,11.9504379 C9.62346934,13.2330111 10.1855024,14.382711 10.9895802,15.317434 C11.4571132,14.527171 12.0974717,13.8457981 12.8753137,13.3176688 C13.3271816,13.0109326 13.8126085,12.7661168 14.3207052,12.5849033 C13.7406509,12.0302989 13.379717,11.257416 13.379717,10.4032393 L13.379717,10.4032393 L13.379717,9.79587182 C13.379717,8.11268524 14.7794505,6.74339862 16.5,6.74339862 C18.2205495,6.74339862 19.620283,8.11268524 19.620283,9.79587182 L19.620283,9.79587182 L19.620283,10.4032393 C19.620283,11.257416 19.2592854,12.0302989 18.6792948,12.5849033 C19.1874552,12.7661168 19.6728821,13.0109326 20.1246863,13.3176688 C20.8988349,13.8432441 21.5366462,14.520817 22.0036061,15.3063456 C23.0588986,14.0812075 23.6958184,12.5006193 23.6958184,10.7769416 C23.6958184,6.89545852 20.4677901,3.737646 16.5,3.737646 C16.1311698,3.737646 15.760684,3.7651177 15.3987948,3.81943816 C15.0512972,3.87126685 14.7261509,3.63816232 14.6728514,3.29809883 C14.6195519,2.95803534 14.858158,2.64014855 15.205783,2.58794609 C15.6312877,2.52415693 16.0667264,2.491764 16.5,2.491764 Z M16.5,13.4555879 C14.5377241,13.4555879 12.7896651,14.5312201 11.9345802,16.2288589 C13.1820566,17.2273088 14.7759481,17.8162372 16.5,17.8162372 C18.2291462,17.8162372 19.8177524,17.2162827 21.0599434,16.2182689 C20.2029481,14.5267972 18.4582005,13.4555879 16.5,13.4555879 Z M16.5,7.98921833 C15.4817689,7.98921833 14.6533019,8.79966457 14.6533019,9.79580952 L14.6533019,9.79580952 L14.6533019,10.403177 C14.6533019,11.3992597 15.4817689,12.2097059 16.5,12.2097059 C17.5182311,12.2097059 18.3466981,11.3992597 18.3466981,10.403177 L18.3466981,10.403177 L18.3466981,9.79580952 C18.3466981,8.79966457 17.5182311,7.98921833 16.5,7.98921833 Z M3.63679245,10.4031147 C3.80426887,10.4031147 3.96856132,10.4697071 4.08694104,10.5856364 C4.20544811,10.7015034 4.27358491,10.8622222 4.27358491,11.0260557 C4.27358491,11.1898892 4.20544811,11.350608 4.08694104,11.4664127 C3.96856132,11.582342 3.80426887,11.6489967 3.63679245,11.6489967 C3.46931604,11.6489967 3.30502358,11.582342 3.18658019,11.4664127 C3.06807311,11.350608 3,11.1898892 3,11.0260557 C3,10.8622222 3.06807311,10.7015034 3.18658019,10.5856364 C3.30508726,10.4697694 3.46931604,10.4031147 3.63679245,10.4031147 Z M8.22169811,-5.73763259e-13 C11.1009552,-5.73763259e-13 13.4433962,2.29148847 13.4433962,5.1081162 C13.4433962,7.92474394 11.1009552,10.2162324 8.22169811,10.2162324 C5.34244104,10.2162324 3,7.92474394 3,5.1081162 C3,2.29148847 5.34244104,-5.73763259e-13 8.22169811,-5.73763259e-13 Z M8.22169811,1.245882 C6.04469575,1.245882 4.27358491,2.9784678 4.27358491,5.1081162 C4.27358491,7.2377646 6.04469575,8.9703504 8.22169811,8.9703504 C10.3987005,8.9703504 12.1698113,7.2377646 12.1698113,5.1081162 C12.1698113,2.9784678 10.3987005,1.245882 8.22169811,1.245882 Z M10.4903349,3.58994669 C10.7390024,3.83320515 10.7390024,4.22765139 10.4903349,4.47097215 L7.96621698,6.94018568 C7.84178774,7.06172147 7.67889623,7.12258281 7.51587736,7.12258281 C7.35285849,7.12258281 7.18996698,7.06172147 7.06560142,6.94012339 L5.90663915,5.80637077 C5.6579717,5.56311231 5.6579717,5.16866607 5.90663915,4.92534531 C6.15537028,4.68214915 6.55845991,4.68214915 6.80725472,4.92534531 L7.51594104,5.61861635 L9.58971934,3.58994669 C9.83845047,3.34675052 10.2415401,3.34675052 10.4903349,3.58994669 Z" id="Combined-Shape" fill="#000000" fill-rule="nonzero"></path>
    </g>
</svg>