<?xml version="1.0" encoding="UTF-8"?>
<svg width="32px" height="32px" viewBox="0 0 32 32" version="1.1" xmlns="http://www.w3.org/2000/svg" xmlns:xlink="http://www.w3.org/1999/xlink">
    <!-- Generator: Sketch 61.2 (89653) - https://sketch.com -->
    <title>comments-icon</title>
    <desc>Created with Sketch.</desc>
    <g id="comments-icon" stroke="none" stroke-width="1" fill="none" fill-rule="evenodd">
        <path d="M14.3111111,2 C21.9333333,2 28.1944444,8.18333333 28.3111111,15.8055556 C28.35,18.2555556 27.7666667,20.6277778 26.5611111,22.7666667 L31.2277778,27.4333333 C31.6555556,27.8611111 31.8111111,28.5222222 31.5388889,29.0666667 C31.2666667,29.6111111 30.7611111,30 30.1388889,30 L14.5833333,30 C10.8111111,30 7.07777778,28.4444444 4.39444444,25.7222222 C1.75,23.0388889 0.311111111,19.5777778 0.311111111,15.9222222 C0.35,8.3 6.61111111,2.03888889 14.2333333,2 L14.3111111,2 L14.3111111,2 Z M14.3111111,3.94444444 L14.2722222,3.94444444 L14.2722222,3.94444444 C7.7,3.98333333 2.29444444,9.35 2.25555556,15.9222222 C2.25555556,19.0722222 3.5,22.0277778 5.75555556,24.3222222 C8.08888889,26.6555556 11.3166667,28.0166667 14.5833333,28.0166667 L29.0888889,28.0166667 L24.1111111,23.0388889 L24.5388889,22.3777778 C25.7833333,20.3944444 26.4055556,18.1388889 26.3666667,15.8055556 C26.25,9.27222222 20.8444444,3.94444444 14.3111111,3.94444444 Z M19.3277778,19.6166667 C19.8722222,19.6166667 20.3,20.0444444 20.3,20.5888889 C20.3,21.1333333 19.8722222,21.5611111 19.3277778,21.5611111 L9.45,21.5611111 C8.90555556,21.5611111 8.47777778,21.1333333 8.47777778,20.5888889 C8.47777778,20.0444444 8.90555556,19.6166667 9.45,19.6166667 L19.3277778,19.6166667 Z M19.3277778,15.0666667 C19.8722222,15.0666667 20.3,15.4944444 20.3,16.0388889 C20.3,16.5833333 19.8722222,17.0111111 19.3277778,17.0111111 L9.45,17.0111111 C8.90555556,17.0111111 8.47777778,16.5833333 8.47777778,16.0388889 C8.47777778,15.4944444 8.90555556,15.0666667 9.45,15.0666667 L19.3277778,15.0666667 Z M19.3277778,10.5555556 C19.8722222,10.5555556 20.3,10.9833333 20.3,11.5277778 C20.3,12.0722222 19.8722222,12.5 19.3277778,12.5 L9.45,12.5 C8.90555556,12.5 8.47777778,12.0722222 8.47777778,11.5277778 C8.47777778,10.9833333 8.90555556,10.5555556 9.45,10.5555556 L19.3277778,10.5555556 Z" id="Combined-Shape" fill="#000000" fill-rule="nonzero"></path>
    </g>
</svg>