<?xml version="1.0" encoding="UTF-8"?>
<svg width="32px" height="32px" viewBox="0 0 32 32" version="1.1" xmlns="http://www.w3.org/2000/svg" xmlns:xlink="http://www.w3.org/1999/xlink">
    <!-- Generator: Sketch 61.2 (89653) - https://sketch.com -->
    <title>date-icon</title>
    <desc>Created with Sketch.</desc>
    <g id="date-icon" stroke="none" stroke-width="1" fill="none" fill-rule="evenodd">
        <path d="M24.8088015,-0.10556643 C25.0055926,-0.108553851 25.1952373,-0.0317845036 25.3344736,0.107317881 C25.4737099,0.246420266 25.5506616,0.435991063 25.5477745,0.632785055 L25.5477745,0.632785055 L25.5477745,2.08870393 L31.3671869,2.08870393 C31.769015,2.08874407 32.0947914,2.41448005 32.0947914,2.81630812 L32.0947914,2.81630812 L32.0947914,31.1914503 C32.0947914,31.3845401 32.0183793,31.5697805 31.8819108,31.7063822 C31.7454423,31.842984 31.5602768,31.919765 31.3671869,31.919765 L31.3671869,31.919765 L0.808521709,31.919765 C0.615431838,31.919765 0.430266334,31.842984 0.293797823,31.7063822 C0.157329312,31.5697805 0.0809172441,31.3845401 0.0809172441,31.1914503 L0.0809172441,31.1914503 L0.0809172441,2.81630812 C0.0809172441,2.41448005 0.40669364,2.08874407 0.808521709,2.08870393 L0.808521709,2.08870393 L6.62793414,2.08870393 L6.62793414,0.632785055 C6.62510596,0.439812017 6.69905259,0.253619308 6.83350633,0.115167928 C6.96796006,-0.0232834518 7.15190694,-0.102652062 7.34488002,-0.10556643 C7.54154887,-0.108359803 7.7310082,-0.0315047448 7.87008902,0.107576065 C8.00916983,0.246656875 8.0860249,0.436116204 8.08314251,0.632785055 L8.08314251,0.632785055 L8.08314251,2.08870393 L24.0918556,2.08870393 L24.0918556,0.632785055 C24.0890274,0.439812017 24.162974,0.253619308 24.2974278,0.115167928 C24.4318815,-0.0232834518 24.6158284,-0.102652062 24.8088015,-0.10556643 Z M30.6395828,10.0916395 L1.53612589,10.0916395 L1.53612589,30.4638461 L30.6395828,30.4638461 L30.6395828,10.0916395 Z M18.2697749,21.73315 C18.4628044,21.73315 18.647936,21.8097902 18.7844281,21.9462831 C18.9209202,22.082776 18.9975583,22.267908 18.9975583,22.4609375 L18.9975583,22.4609375 L18.9975583,26.827635 C18.9975583,27.0206645 18.9209202,27.2057965 18.7844281,27.3422894 C18.647936,27.4787823 18.4628044,27.5554225 18.2697749,27.5554225 L18.2697749,27.5554225 L13.9057614,27.5554225 C13.7127318,27.5554225 13.5276003,27.4787823 13.3911082,27.3422894 C13.2546161,27.2057965 13.177978,27.0206645 13.177978,26.827635 L13.177978,26.827635 L13.177978,22.4609375 C13.177978,22.267908 13.2546161,22.082776 13.3911082,21.9462831 C13.5276003,21.8097902 13.7127318,21.73315 13.9057614,21.73315 L13.9057614,21.73315 Z M27.0004886,21.73315 C27.1935182,21.73315 27.3786497,21.8097902 27.5151418,21.9462831 C27.6516339,22.082776 27.728272,22.267908 27.728272,22.4609375 L27.728272,22.4609375 L27.728272,26.827635 C27.728272,27.0206645 27.6516339,27.2057965 27.5151418,27.3422894 C27.3786497,27.4787823 27.1935182,27.5554225 27.0004886,27.5554225 L27.0004886,27.5554225 L22.6364751,27.5554225 C22.4434456,27.5554225 22.258314,27.4787823 22.1218219,27.3422894 C21.9853298,27.2057965 21.9086917,27.0206645 21.9086917,26.827635 L21.9086917,26.827635 L21.9086917,22.4609375 C21.9086917,22.267908 21.9853298,22.082776 22.1218219,21.9462831 C22.258314,21.8097902 22.4434456,21.73315 22.6364751,21.73315 L22.6364751,21.73315 Z M9.5390625,21.73315 C9.732092,21.73315 9.91722355,21.8097903 10.0537156,21.9462831 C10.1902077,22.082776 10.2668457,22.267908 10.2668457,22.4609375 L10.2668457,22.4609375 L10.2668457,26.827635 C10.2668457,27.0206645 10.1902077,27.2057965 10.0537156,27.3422894 C9.91722355,27.4787822 9.732092,27.5554225 9.5390625,27.5554225 L9.5390625,27.5554225 L5.17236335,27.5554225 C4.97933385,27.5554225 4.7942023,27.4787822 4.65771023,27.3422894 C4.52121815,27.2057965 4.4445801,27.0206645 4.4445801,26.827635 L4.4445801,26.827635 L4.4445801,22.4609375 C4.4445801,22.267908 4.52121815,22.082776 4.65771023,21.9462831 C4.7942023,21.8097903 4.97933385,21.73315 5.17236335,21.73315 L5.17236335,21.73315 Z M17.5419915,23.188725 L14.6335447,23.188725 L14.6335447,26.0998475 L17.5419915,26.0998475 L17.5419915,23.188725 Z M26.2727052,23.188725 L23.3642585,23.188725 L23.3642585,26.0998475 L26.2727052,26.0998475 L26.2727052,23.188725 Z M8.81127926,23.188725 L5.90014645,23.188725 L5.90014645,26.0998475 L8.81127926,26.0998475 L8.81127926,23.188725 Z M9.5390625,13.0024362 C9.732092,13.0024362 9.91722355,13.0790765 10.0537156,13.2155694 C10.1902077,13.3520622 10.2668457,13.5371942 10.2668457,13.7302237 L10.2668457,13.7302237 L10.2668457,18.09424 C10.2668457,18.2872695 10.1902077,18.4724015 10.0537156,18.6088944 C9.91722355,18.7453872 9.732092,18.8220275 9.5390625,18.8220275 L9.5390625,18.8220275 L5.17236335,18.8220275 C4.97933385,18.8220275 4.7942023,18.7453872 4.65771023,18.6088944 C4.52121815,18.4724015 4.4445801,18.2872695 4.4445801,18.09424 L4.4445801,18.09424 L4.4445801,13.7302237 C4.4445801,13.5371942 4.52121815,13.3520622 4.65771023,13.2155694 C4.7942023,13.0790765 4.97933385,13.0024362 5.17236335,13.0024362 L5.17236335,13.0024362 Z M18.2697749,13.0024362 C18.4628044,13.0024362 18.647936,13.0790765 18.7844281,13.2155693 C18.9209202,13.3520622 18.9975583,13.5371942 18.9975583,13.7302237 L18.9975583,13.7302237 L18.9975583,18.09424 C18.9975583,18.2872695 18.9209202,18.4724015 18.7844281,18.6088944 C18.647936,18.7453873 18.4628044,18.8220275 18.2697749,18.8220275 L18.2697749,18.8220275 L13.9057614,18.8220275 C13.7127318,18.8220275 13.5276003,18.7453873 13.3911082,18.6088944 C13.2546161,18.4724015 13.177978,18.2872695 13.177978,18.09424 L13.177978,18.09424 L13.177978,13.7302237 C13.177978,13.5371942 13.2546161,13.3520622 13.3911082,13.2155693 C13.5276003,13.0790765 13.7127318,13.0024362 13.9057614,13.0024362 L13.9057614,13.0024362 Z M27.0004886,13.0024362 C27.1935182,13.0024362 27.3786497,13.0790765 27.5151418,13.2155693 C27.6516339,13.3520622 27.728272,13.5371942 27.728272,13.7302237 L27.728272,13.7302237 L27.728272,18.09424 C27.728272,18.2872695 27.6516339,18.4724015 27.5151418,18.6088944 C27.3786497,18.7453873 27.1935182,18.8220275 27.0004886,18.8220275 L27.0004886,18.8220275 L22.6364751,18.8220275 C22.4434456,18.8220275 22.258314,18.7453873 22.1218219,18.6088944 C21.9853298,18.4724015 21.9086917,18.2872695 21.9086917,18.09424 L21.9086917,18.09424 L21.9086917,13.7302237 C21.9086917,13.5371942 21.9853298,13.3520622 22.1218219,13.2155693 C22.258314,13.0790765 22.4434456,13.0024362 22.6364751,13.0024362 L22.6364751,13.0024362 Z M8.81127926,14.4580112 L5.90014645,14.4580112 L5.90014645,17.3664525 L8.81127926,17.3664525 L8.81127926,14.4580112 Z M17.5419915,14.4580112 L14.6335447,14.4580112 L14.6335447,17.3664525 L17.5419915,17.3664525 L17.5419915,14.4580112 Z M26.2727052,14.4580112 L23.3642585,14.4580112 L23.3642585,17.3664525 L26.2727052,17.3664525 L26.2727052,14.4580112 Z M6.62793414,3.5439123 L1.53612589,3.5439123 L1.53612589,8.63572058 L30.6395828,8.63572058 L30.6395828,3.5439123 L25.5477745,3.5439123 L25.5477745,4.99983118 C25.5477745,5.40187207 25.2218559,5.72779061 24.819815,5.72779061 C24.4177741,5.72779061 24.0918556,5.40187207 24.0918556,4.99983118 L24.0918556,4.99983118 L24.0918556,3.5439123 L8.08314251,3.5439123 L8.08314251,4.99983118 C8.07436809,5.39538821 7.75119266,5.71147432 7.35553833,5.71147432 C6.95988399,5.71147432 6.63670856,5.39538821 6.62793414,4.99983118 L6.62793414,4.99983118 L6.62793414,3.5439123 Z" id="Combined-Shape" fill="#000000" fill-rule="nonzero"></path>
    </g>
</svg>