<?xml version="1.0" encoding="UTF-8"?>
<svg width="32px" height="32px" viewBox="0 0 32 32" version="1.1" xmlns="http://www.w3.org/2000/svg" xmlns:xlink="http://www.w3.org/1999/xlink">
    <!-- Generator: Sketch 61.2 (89653) - https://sketch.com -->
    <title>e-learning</title>
    <desc>Created with Sketch.</desc>
    <g id="e-learning" stroke="none" stroke-width="1" fill="none" fill-rule="evenodd">
        <path d="M27.2650218,0.000260668772 C27.4487956,-0.00490375751 27.6266595,0.0668609219 27.7575245,0.198620892 C27.8881081,0.330380861 27.9601542,0.511227817 27.9568906,0.698677141 L27.9568906,0.698677141 L27.9568906,25.0521647 C27.9568906,25.4563433 27.6685926,25.7944985 27.272339,25.7944985 L27.272339,25.7944985 L26.4438087,25.7944985 L26.4438087,30.9018472 C26.4438087,31.3060258 26.1339541,31.673461 25.7377005,31.673461 L25.7377005,31.673461 L6.58075262,31.673461 C4.59160457,31.6605434 2.98886004,30.0059369 3.00005833,27.9770059 C3.00005833,27.9549024 3.00715298,27.9256224 3.00715298,27.8963424 C3.00715298,27.8814154 3.02150594,27.8742389 3.02150594,27.8595989 L3.02150594,27.8595989 L3.02150594,3.62351847 C3.01615875,2.66101053 3.38877229,1.73610738 4.05604304,1.05549115 C4.72331386,0.374874907 5.62980024,-0.00490375751 6.5734354,0.000260668772 L6.5734354,0.000260668772 Z M24.9955693,25.7944794 L6.5734354,25.7944794 C5.41929052,25.7896185 4.46918245,26.7196887 4.42640507,27.8963424 L4.42640507,27.8963424 L4.42640507,27.9844695 C4.42724938,29.1984408 5.38354895,30.186784 6.5734354,30.2037204 L6.5734354,30.2037204 L24.9955693,30.2037204 L24.9955693,25.7944794 Z M7.77654916,1.4701941 L6.5734354,1.4701941 C6.01198238,1.46483691 5.47191797,1.68989095 5.07482006,2.09493074 C4.67800363,2.49997061 4.45708094,3.05083631 4.46242813,3.62351847 L4.46242813,3.62351847 L4.46242813,25.0375246 C5.06834722,24.5661742 5.81160413,24.3149979 6.5734354,24.3247578 L6.5734354,24.3247578 L7.77654916,24.3247578 L7.77654916,1.4701941 Z M26.5085376,1.47029097 L9.21747135,1.47029097 L9.21747135,24.3247578 L26.5085376,24.3247578 L26.5085376,1.47029097 Z M24.0589699,3.82187599 C24.4566306,3.82302422 24.7783053,4.1514194 24.779431,4.55674631 L24.779431,4.55674631 L24.779431,11.1705792 C24.7783053,11.5759061 24.4566306,11.9043012 24.0589699,11.9054495 L24.0589699,11.9054495 L11.6670391,11.9054495 C11.2696598,11.9043012 10.9479851,11.5759061 10.946578,11.1705792 L10.946578,11.1705792 L10.946578,4.55674631 C10.9479851,4.1514194 11.2696598,3.82302422 11.6670391,3.82187599 L11.6670391,3.82187599 Z M23.3385088,5.29161662 L12.3875002,5.29161662 L12.3875002,10.4357088 L23.3385088,10.4357088 L23.3385088,5.29161662 Z" id="Combined-Shape" fill="#000000" fill-rule="nonzero"></path>
    </g>
</svg>