<?xml version="1.0" encoding="UTF-8"?>
<svg width="32px" height="32px" viewBox="0 0 32 32" version="1.1" xmlns="http://www.w3.org/2000/svg" xmlns:xlink="http://www.w3.org/1999/xlink">
    <!-- Generator: Sketch 61.2 (89653) - https://sketch.com -->
    <title>facebook-footer-icon</title>
    <desc>Created with Sketch.</desc>
    <g id="facebook-footer-icon" stroke="none" stroke-width="1" fill="none" fill-rule="evenodd">
        <path d="M4.6875,32 L15.125,32 L15.125,20.625 L11.375,20.625 L11.375,16.875 L15.125,16.875 L15.125,12.1875 C15.125,9.60278319 17.2277832,7.5 19.8125,7.5 L24.5,7.5 L24.5,11.25 L20.75,11.25 C19.7160644,11.25 18.875,12.0910644 18.875,13.125 L18.875,16.875 L24.3308106,16.875 L23.7058106,20.625 L18.875,20.625 L18.875,32 L27.3125,32 C29.8972168,32 32,29.8972168 32,27.3125 L32,4.6875 C32,2.10278319 29.8972168,0 27.3125,0 L4.6875,0 C2.10278319,0 0,2.10278319 0,4.6875 L0,27.3125 C0,29.8972168 2.10278319,32 4.6875,32 Z M1.875,4.6875 C1.875,3.13671875 3.13671875,1.875 4.6875,1.875 L27.3125,1.875 C28.8632813,1.875 30.125,3.13671875 30.125,4.6875 L30.125,27.3125 C30.125,28.8632813 28.8632813,30.125 27.3125,30.125 L20.75,30.125 L20.75,22.5 L25.2941894,22.5 L26.5441894,15 L20.75,15 L20.75,13.125 L26.375,13.125 L26.375,5.625 L19.8125,5.625 C16.1938476,5.625 13.25,8.56884763 13.25,12.1875 L13.25,15 L9.5,15 L9.5,22.5 L13.25,22.5 L13.25,30.125 L4.6875,30.125 C3.13671875,30.125 1.875,28.8632813 1.875,27.3125 L1.875,4.6875 Z" id="Shape" fill="#000000" fill-rule="nonzero"></path>
    </g>
</svg>