<?xml version="1.0" encoding="UTF-8"?>
<svg width="32px" height="32px" viewBox="0 0 32 32" version="1.1" xmlns="http://www.w3.org/2000/svg" xmlns:xlink="http://www.w3.org/1999/xlink">
    <!-- Generator: Sketch 61.2 (89653) - https://sketch.com -->
    <title>heart-outline-icon</title>
    <desc>Created with Sketch.</desc>
    <g id="heart-outline-icon" stroke="none" stroke-width="1" fill="none" fill-rule="evenodd">
        <path d="M16,30 C16.3095238,30 16.5714286,29.8945312 16.7857143,29.6835938 L16.7857143,29.6835938 L27.9107143,19.1367188 C30.6369048,16.453125 32,13.8164062 32,11.2265625 C32,8.6484375 31.2440476,6.6328125 29.7321429,5.1796875 C28.2202381,3.7265625 26.1309524,3 23.4642857,3 C22.7261905,3 21.9732143,3.12597656 21.2053571,3.37792969 C20.4375,3.62988281 19.7232143,3.96972656 19.0625,4.39746094 C18.4017857,4.82519531 17.8333333,5.2265625 17.3571429,5.6015625 C16.8809524,5.9765625 16.4285714,6.375 16,6.796875 C15.5714286,6.375 15.1190476,5.9765625 14.6428571,5.6015625 C14.1666667,5.2265625 13.5982143,4.82519531 12.9375,4.39746094 C12.2767857,3.96972656 11.5625,3.62988281 10.7946429,3.37792969 C10.0267857,3.12597656 9.27380952,3 8.53571429,3 C5.86904762,3 3.7797619,3.7265625 2.26785714,5.1796875 C0.755952381,6.6328125 0,8.6484375 0,11.2265625 C0,12.0117188 0.139880952,12.8203125 0.419642857,13.6523438 C0.699404762,14.484375 1.01785714,15.1933594 1.375,15.7792969 C1.73214286,16.3652344 2.13690476,16.9365234 2.58928571,17.4931641 C3.04166667,18.0498047 3.37202381,18.4335938 3.58035714,18.6445312 C3.78869048,18.8554688 3.95238095,19.0078125 4.07142857,19.1015625 L4.07142857,19.1015625 L15.2142857,29.6835938 C15.4285714,29.8945312 15.6904762,30 16,30 Z M16,27.3105469 L5.625,17.4667969 C3.39880952,15.2753906 2.28571429,13.1953125 2.28571429,11.2265625 C2.28571429,10.2773438 2.41369048,9.43945312 2.66964286,8.71289062 C2.92559524,7.98632812 3.25297619,7.40917969 3.65178571,6.98144531 C4.05059524,6.55371094 4.53571429,6.20507812 5.10714286,5.93554688 C5.67857143,5.66601562 6.23809524,5.484375 6.78571429,5.390625 C7.33333333,5.296875 7.91666667,5.25 8.53571429,5.25 C9.1547619,5.25 9.82142857,5.39941406 10.5357143,5.69824219 C11.25,5.99707031 11.9077381,6.37207031 12.5089286,6.82324219 C13.110119,7.27441406 13.625,7.69628906 14.0535714,8.08886719 C14.4821429,8.48144531 14.8392857,8.84179688 15.125,9.16992188 C15.3392857,9.42773438 15.6309524,9.55664062 16,9.55664062 C16.3690476,9.55664062 16.6607143,9.42773438 16.875,9.16992188 C17.1607143,8.84179688 17.5178571,8.48144531 17.9464286,8.08886719 C18.375,7.69628906 18.889881,7.27441406 19.4910714,6.82324219 C20.0922619,6.37207031 20.75,5.99707031 21.4642857,5.69824219 C22.1785714,5.39941406 22.8452381,5.25 23.4642857,5.25 C24.0833333,5.25 24.6666667,5.296875 25.2142857,5.390625 C25.7619048,5.484375 26.3214286,5.66601562 26.8928571,5.93554688 C27.4642857,6.20507812 27.9494048,6.55371094 28.3482143,6.98144531 C28.7470238,7.40917969 29.0744048,7.98632812 29.3303571,8.71289062 C29.5863095,9.43945312 29.7142857,10.2773438 29.7142857,11.2265625 C29.7142857,13.1953125 28.5952381,15.28125 26.3571429,17.484375 L26.3571429,17.484375 L16,27.3105469 Z" id="" fill="#000000" fill-rule="nonzero"></path>
    </g>
</svg>