<?xml version="1.0" encoding="UTF-8"?>
<svg width="32px" height="32px" viewBox="0 0 32 32" version="1.1" xmlns="http://www.w3.org/2000/svg" xmlns:xlink="http://www.w3.org/1999/xlink">
    <!-- Generator: Sketch 61.2 (89653) - https://sketch.com -->
    <title>heart-filled-icon</title>
    <desc>Created with Sketch.</desc>
    <g id="heart-filled-icon" stroke="none" stroke-width="1" fill="none" fill-rule="evenodd">
        <path d="M16,30 C16.3095238,30 16.5714286,29.8945312 16.7857143,29.6835938 L16.7857143,29.6835938 L27.9107143,19.1367188 C30.6369048,16.453125 32,13.8164062 32,11.2265625 C32,8.6484375 31.2440476,6.6328125 29.7321429,5.1796875 C28.2202381,3.7265625 26.1309524,3 23.4642857,3 C22.7261905,3 21.9732143,3.12597656 21.2053571,3.37792969 C20.4375,3.62988281 19.7232143,3.96972656 19.0625,4.39746094 C18.4017857,4.82519531 17.8333333,5.2265625 17.3571429,5.6015625 C16.8809524,5.9765625 16.4285714,6.375 16,6.796875 C15.5714286,6.375 15.1190476,5.9765625 14.6428571,5.6015625 C14.1666667,5.2265625 13.5982143,4.82519531 12.9375,4.39746094 C12.2767857,3.96972656 11.5625,3.62988281 10.7946429,3.37792969 C10.0267857,3.12597656 9.27380952,3 8.53571429,3 C5.86904762,3 3.7797619,3.7265625 2.26785714,5.1796875 C0.755952381,6.6328125 0,8.6484375 0,11.2265625 C0,12.0117188 0.139880952,12.8203125 0.419642857,13.6523438 C0.699404762,14.484375 1.01785714,15.1933594 1.375,15.7792969 C1.73214286,16.3652344 2.13690476,16.9365234 2.58928571,17.4931641 C3.04166667,18.0498047 3.37202381,18.4335938 3.58035714,18.6445312 C3.78869048,18.8554688 3.95238095,19.0078125 4.07142857,19.1015625 L4.07142857,19.1015625 L15.2142857,29.6835938 C15.4285714,29.8945312 15.6904762,30 16,30 Z" id="" fill="#000000" fill-rule="nonzero"></path>
    </g>
</svg>