<?xml version="1.0" encoding="UTF-8"?>
<svg width="32px" height="32px" viewBox="0 0 32 32" version="1.1" xmlns="http://www.w3.org/2000/svg" xmlns:xlink="http://www.w3.org/1999/xlink">
    <!-- Generator: Sketch 61.2 (89653) - https://sketch.com -->
    <title>instagram-footer-icon</title>
    <desc>Created with Sketch.</desc>
    <g id="instagram-footer-icon" stroke="none" stroke-width="1" fill="none" fill-rule="evenodd">
        <path d="M27.3125,-4.26325641e-14 C29.8972168,-4.26325641e-14 32,2.10278319 32,4.6875 L32,4.6875 L32,27.3125 C32,29.8972168 29.8972168,32 27.3125,32 L27.3125,32 L4.6875,32 C2.10278319,32 -4.26325641e-14,29.8972168 -4.26325641e-14,27.3125 L-4.26325641e-14,27.3125 L-4.26325641e-14,4.6875 C-4.26325641e-14,2.10278319 2.10278319,-4.26325641e-14 4.6875,-4.26325641e-14 L4.6875,-4.26325641e-14 Z M27.3125,1.875 L4.6875,1.875 C3.13671875,1.875 1.875,3.13671875 1.875,4.6875 L1.875,4.6875 L1.875,27.3125 C1.875,28.8632812 3.13671875,30.125 4.6875,30.125 L4.6875,30.125 L27.3125,30.125 C28.8632812,30.125 30.125,28.8632812 30.125,27.3125 L30.125,27.3125 L30.125,4.6875 C30.125,3.13671875 28.8632812,1.875 27.3125,1.875 L27.3125,1.875 Z M16,7.5625 C20.6523437,7.5625 24.4375,11.3476562 24.4375,16 C24.4375,20.6523437 20.6523437,24.4375 16,24.4375 C11.3476562,24.4375 7.5625,20.6523437 7.5625,16 C7.5625,11.3476562 11.3476562,7.5625 16,7.5625 Z M16,9.4375 C12.3813476,9.4375 9.4375,12.3813476 9.4375,16 C9.4375,19.6186524 12.3813476,22.5625 16,22.5625 C19.6186524,22.5625 22.5625,19.6186524 22.5625,16 C22.5625,12.3813476 19.6186524,9.4375 16,9.4375 Z M25.375,3.8125 C26.9257812,3.8125 28.1875,5.07421875 28.1875,6.625 C28.1875,8.17578125 26.9257812,9.4375 25.375,9.4375 C23.8242187,9.4375 22.5625,8.17578125 22.5625,6.625 C22.5625,5.07421875 23.8242187,3.8125 25.375,3.8125 Z M25.375,5.6875 C24.8581543,5.6875 24.4375,6.10815431 24.4375,6.625 C24.4375,7.14184569 24.8581543,7.5625 25.375,7.5625 C25.8918457,7.5625 26.3125,7.14184569 26.3125,6.625 C26.3125,6.10815431 25.8918457,5.6875 25.375,5.6875 Z" id="Combined-Shape" fill="#000000" fill-rule="nonzero"></path>
    </g>
</svg>