<?xml version="1.0" encoding="UTF-8"?>
<svg width="32px" height="32px" viewBox="0 0 32 32" version="1.1" xmlns="http://www.w3.org/2000/svg" xmlns:xlink="http://www.w3.org/1999/xlink">
    <!-- Generator: Sketch 61.2 (89653) - https://sketch.com -->
    <title>interview-prep-icon</title>
    <desc>Created with Sketch.</desc>
    <g id="interview-prep-icon" stroke="none" stroke-width="1" fill="none" fill-rule="evenodd">
        <path d="M27.2311321,1 C28.2064858,1 29,1.78855469 29,2.7578125 L29,2.7578125 L29,29.2421875 C29,30.2114453 28.2064858,31 27.2311321,31 L27.2311321,31 L5.76886792,31 C4.79351415,31 4,30.2114453 4,29.2421875 L4,29.2421875 L4,2.7578125 C4,1.78855469 4.79351415,1 5.76886792,1 L5.76886792,1 Z M22.4551887,2.171875 L5.76886792,2.171875 C5.44375,2.171875 5.17924528,2.43472656 5.17924528,2.7578125 L5.17924528,2.7578125 L5.17924528,29.2421875 C5.17924528,29.5652734 5.44375,29.828125 5.76886792,29.828125 L5.76886792,29.828125 L27.2311321,29.828125 C27.55625,29.828125 27.8207547,29.5652734 27.8207547,29.2421875 L27.8207547,29.2421875 L27.8207547,7.51134766 L24.2240566,7.51134766 C23.2487028,7.51134766 22.4551887,6.72279297 22.4551887,5.75353516 L22.4551887,5.75353516 L22.4551887,2.171875 Z M25.5961085,26.078125 C25.7511792,26.078125 25.9033019,26.1408203 26.0129717,26.2498047 C26.1226415,26.3587891 26.1857311,26.5099609 26.1857311,26.6640625 C26.1857311,26.8181641 26.1226415,26.9693359 26.0129717,27.0783203 C25.9033019,27.1873047 25.7511792,27.25 25.5961085,27.25 C25.4410377,27.25 25.2889151,27.1873047 25.1792453,27.0783203 C25.0695755,26.9693359 25.0064858,26.8181641 25.0064858,26.6640625 C25.0064858,26.5099609 25.0695755,26.3587891 25.1792453,26.2498047 C25.2889151,26.1408203 25.4410377,26.078125 25.5961085,26.078125 Z M23.2220519,26.078125 C23.5477005,26.078125 23.8116745,26.3404492 23.8116745,26.6640625 C23.8116745,26.9876758 23.5477005,27.25 23.2220519,27.25 L23.2220519,27.25 L7.55548349,27.25 C7.22983491,27.25 6.96586085,26.9876758 6.96586085,26.6640625 C6.96586085,26.3404492 7.22983491,26.078125 7.55548349,26.078125 L7.55548349,26.078125 Z M25.5960495,23.265625 C25.9216981,23.265625 26.1856722,23.5279492 26.1856722,23.8515625 C26.1856722,24.1751758 25.9216981,24.4375 25.5960495,24.4375 L25.5960495,24.4375 L7.55548349,24.4375 C7.22983491,24.4375 6.96586085,24.1751758 6.96586085,23.8515625 C6.96586085,23.5279492 7.22983491,23.265625 7.55548349,23.265625 L7.55548349,23.265625 Z M25.4444575,20.453125 C25.7701061,20.453125 26.0340802,20.7154492 26.0340802,21.0390625 C26.0340802,21.3626758 25.7701061,21.625 25.4444575,21.625 L25.4444575,21.625 L7.55548349,21.625 C7.22983491,21.625 6.96586085,21.3626758 6.96586085,21.0390625 C6.96586085,20.7154492 7.22983491,20.453125 7.55548349,20.453125 L7.55548349,20.453125 Z M25.5960495,17.640625 C25.9216981,17.640625 26.1856722,17.9029492 26.1856722,18.2265625 C26.1856722,18.5501758 25.9216981,18.8125 25.5960495,18.8125 L25.5960495,18.8125 L7.55548349,18.8125 C7.22983491,18.8125 6.96586085,18.5501758 6.96586085,18.2265625 C6.96586085,17.9029492 7.22983491,17.640625 7.55548349,17.640625 L7.55548349,17.640625 Z M25.4445165,14.828125 C25.7701651,14.828125 26.0340802,15.0904492 26.0340802,15.4140625 C26.0340802,15.7376758 25.7701061,16 25.4444575,16 L25.4444575,16 L19.0568986,16 C18.73125,16 18.4672759,15.7376758 18.4672759,15.4140625 C18.4672759,15.0904492 18.73125,14.828125 19.0568986,14.828125 L19.0568986,14.828125 Z M16.0384434,4.75 C16.364092,4.75 16.628066,5.01232422 16.628066,5.3359375 L16.628066,5.3359375 L16.628066,15.4140625 C16.628066,15.7376758 16.364092,16 16.0384434,16 L16.0384434,16 L7.39634434,16 C7.07069575,16 6.8067217,15.7376758 6.8067217,15.4140625 L6.8067217,15.4140625 L6.81432783,5.3359375 C6.81432783,5.01232422 7.07830189,4.75 7.40395047,4.75 L7.40395047,4.75 Z M12.9477005,11.78125 L10.4870873,11.78125 C9.17051887,11.78125 8.08903302,12.7976172 7.99357311,14.082168 L7.99357311,14.082168 L7.98596698,14.828125 L15.4488208,14.828125 L15.4488208,14.2667383 C15.4488208,12.8962305 14.3268278,11.78125 12.9477005,11.78125 L12.9477005,11.78125 Z M25.4445165,12.015625 C25.7701651,12.015625 26.0341392,12.2779492 26.0341392,12.6015625 C26.0341392,12.9251758 25.7701651,13.1875 25.4445165,13.1875 L25.4445165,13.1875 L18.8751179,13.1875 C18.5494693,13.1875 18.2854953,12.9251758 18.2854953,12.6015625 C18.2854953,12.2779492 18.5494693,12.015625 18.8751179,12.015625 L18.8751179,12.015625 Z M15.4488208,5.921875 L7.99357311,5.921875 L7.99357311,11.5797461 C8.5004717,11.1148633 9.13867925,10.7901367 9.8459316,10.6660937 C9.68584906,10.369668 9.59475236,10.0311719 9.59475236,9.671875 L9.59475236,9.671875 L9.59475236,9.29101562 C9.59475236,8.12787109 10.546934,7.18164062 11.7173939,7.18164062 C12.8878538,7.18164062 13.8400354,8.12787109 13.8400354,9.29101562 L13.8400354,9.29101562 L13.8400354,9.671875 C13.8400354,10.0311719 13.7489387,10.369668 13.5888561,10.6660937 C14.2997052,10.7907812 14.940684,11.1183203 15.4488208,11.5870117 L15.4488208,11.5870117 L15.4488208,5.921875 Z M11.7173939,8.35351562 C11.1972288,8.35351562 10.7739976,8.77410156 10.7739976,9.29101562 L10.7739976,9.29101562 L10.7739976,9.671875 C10.7739976,10.1887891 11.1972288,10.609375 11.7173939,10.609375 C12.237559,10.609375 12.6607901,10.1887891 12.6607901,9.671875 L12.6607901,9.671875 L12.6607901,9.29101562 C12.6607901,8.77410156 12.237559,8.35351562 11.7173939,8.35351562 Z M18.875,9.203125 C19.0300708,9.203125 19.1821934,9.26582031 19.2918632,9.37480469 C19.401533,9.48378906 19.4646226,9.63496094 19.4646226,9.7890625 C19.4646226,9.94316406 19.401533,10.0943359 19.2918632,10.2033203 C19.1821934,10.3123047 19.0300708,10.375 18.875,10.375 C18.7199292,10.375 18.5678066,10.3123047 18.4581368,10.2033203 C18.348467,10.0943359 18.2853774,9.94316406 18.2853774,9.7890625 C18.2853774,9.63496094 18.348467,9.48378906 18.4581368,9.37480469 C18.5678066,9.26582031 18.7199292,9.203125 18.875,9.203125 Z M25.4445165,9.203125 C25.7701651,9.203125 26.0341392,9.46544922 26.0341392,9.7890625 C26.0341392,10.1126758 25.7701651,10.375 25.4445165,10.375 L25.4445165,10.375 L21.2291274,10.375 C20.9034788,10.375 20.6395047,10.1126758 20.6395047,9.7890625 C20.6395047,9.46544922 20.9034788,9.203125 21.2291274,9.203125 L21.2291274,9.203125 Z M23.634434,3.07632813 L23.634434,5.75353516 C23.634434,6.07662109 23.8989387,6.33947266 24.2240566,6.33947266 L24.2240566,6.33947266 L26.9181014,6.33947266 L23.634434,3.07632813 Z M27.2311321,2.171875 L24.3920401,2.171875 L27.8207547,5.57916016 L27.8207547,2.7578125 C27.8207547,2.43472656 27.55625,2.171875 27.2311321,2.171875 L27.2311321,2.171875 Z" id="Combined-Shape" fill="#000000" fill-rule="nonzero"></path>
    </g>
</svg>