<?xml version="1.0" encoding="UTF-8"?>
<svg width="32px" height="32px" viewBox="0 0 32 32" version="1.1" xmlns="http://www.w3.org/2000/svg" xmlns:xlink="http://www.w3.org/1999/xlink">
    <!-- Generator: Sketch 61.2 (89653) - https://sketch.com -->
    <title>job-alert-email-icon</title>
    <desc>Created with Sketch.</desc>
    <g id="job-alert-email-icon" stroke="none" stroke-width="1" fill="none" fill-rule="evenodd">
        <path d="M31.4666667,22.8688125 C27.7102534,19.104 27.1449825,17.2149375 27.1449825,11.2 C27.1449825,5.014375 22.1414425,0 15.9689357,0 C9.79642885,0 4.79288889,5.0144375 4.79288889,11.2 C4.79288889,14.4431875 4.70668226,15.653875 4.26111501,17.14025 C3.70700975,18.992 2.56948148,20.7648125 0.470643275,22.8688125 C-0.534830409,23.8768125 0.177403509,25.6 1.59968811,25.6 L10.4607563,25.6 L10.3803509,26.4 C10.3803509,29.4928125 12.882152,32 15.9683743,32 C19.0545965,32 21.5563977,29.4928125 21.5563977,26.4 L21.4759922,25.6 L30.3376218,25.6 C31.7604678,25.6 32.4727018,23.8768125 31.4666667,22.8688125 Z M15.9694347,30.4 C13.7651774,30.4 11.9777934,28.6085625 11.9777934,26.4 L12.0581988,25.6 L19.8797349,25.6 L19.9612008,26.4 C19.9612008,28.6085625 18.173692,30.4 15.9694347,30.4 Z M1.60018713,24 C6.38976998,19.2 6.38976998,16 6.38976998,11.2 C6.38976998,5.8986875 10.6784561,1.6 15.9689357,1.6 C21.2594152,1.6 25.5481014,5.8986875 25.5486004,11.2 C25.5486004,16 25.5486004,19.2 30.3381832,24 L1.60018713,24 Z" id="Shape" fill="#000000" fill-rule="nonzero"></path>
    </g>
</svg>