<?xml version="1.0" encoding="UTF-8"?>
<svg width="32px" height="32px" viewBox="0 0 32 32" version="1.1" xmlns="http://www.w3.org/2000/svg" xmlns:xlink="http://www.w3.org/1999/xlink">
    <!-- Generator: Sketch 61.2 (89653) - https://sketch.com -->
    <title>personal-dasboard-icon</title>
    <desc>Created with Sketch.</desc>
    <g id="personal-dasboard-icon" stroke="none" stroke-width="1" fill="none" fill-rule="evenodd">
        <path d="M28.875,0 C30.5981445,0 32,1.4018555 32,3.125 L32,3.125 L32,22.25 C32,23.9731445 30.5981445,25.375 28.875,25.375 L28.875,25.375 L19.125,25.375 L19.125,28.25 L19.75,28.25 C21.4731445,28.25 22.875,29.6518555 22.875,31.375 C22.875,31.7202149 22.5952149,32 22.25,32 L22.25,32 L9.75,32 C9.40478513,32 9.125,31.7202149 9.125,31.375 C9.125,30.5405274 9.45019531,29.7561035 10.0405274,29.1655274 C10.6311035,28.5751953 11.4155274,28.25 12.25,28.25 L12.25,28.25 L12.875,28.25 L12.875,25.375 L3.125,25.375 C1.4018555,25.375 0,23.9731445 0,22.25 L0,22.25 L0,3.125 C0,1.4018555 1.4018555,0 3.125,0 L3.125,0 Z M19.75,29.5 L12.25,29.5 C11.7495118,29.5 11.2788086,29.6950684 10.9243164,30.0493164 C10.7231445,30.2507324 10.5732422,30.4895019 10.4814453,30.75 L10.4814453,30.75 L21.5178223,30.75 C21.2600098,30.0224609 20.5649414,29.5 19.75,29.5 L19.75,29.5 Z M17.875,25.375 L14.125,25.375 L14.125,28.25 L17.875,28.25 L17.875,25.375 Z M30.75,20.375 L1.25,20.375 L1.25,22.25 C1.25,23.2839356 2.09106444,24.125 3.125,24.125 L3.125,24.125 L28.875,24.125 C29.9089356,24.125 30.75,23.2839356 30.75,22.25 L30.75,22.25 L30.75,20.375 Z M19.75,21.625 C20.0949707,21.625 20.375,21.9050293 20.375,22.25 C20.375,22.5949707 20.0949707,22.875 19.75,22.875 C19.4050293,22.875 19.125,22.5949707 19.125,22.25 C19.125,21.9050293 19.4050293,21.625 19.75,21.625 Z M17.25,21.625 C17.5952149,21.625 17.875,21.9047851 17.875,22.25 C17.875,22.5638317 17.6437726,22.8235892 17.3423662,22.8682242 L17.25,22.875 L13.5,22.875 C13.1547851,22.875 12.875,22.5952149 12.875,22.25 C12.875,21.9361683 13.1062274,21.6764108 13.4076338,21.6317758 L13.5,21.625 L17.25,21.625 Z M28.875,1.25 L3.125,1.25 C2.09106444,1.25 1.25,2.09106444 1.25,3.125 L1.25,3.125 L1.25,19.125 L30.75,19.125 L30.75,3.125 C30.75,2.09106444 29.9089356,1.25 28.875,1.25 L28.875,1.25 Z M22.7786679,6 C23.7046832,6 24.4580573,6.75337405 24.4580573,7.67938931 C24.4580573,8.60540458 23.7046832,9.35877863 22.7786679,9.35877863 C22.5306221,9.35877863 22.2908792,9.30533374 22.0724874,9.20396849 L21.9129008,9.1190458 L18.9425229,11.876855 C19.0893435,12.129687 19.1679389,12.4175763 19.1679389,12.7175992 C19.1679389,13.6436145 18.4145649,14.3969885 17.4885496,14.3969885 C16.5625344,14.3969885 15.8091603,13.6436145 15.8091603,12.7175992 C15.8091603,12.4736847 15.860993,12.2377238 15.9592843,12.0221198 L16.0416298,11.8644275 L14.5630954,10.3858931 C14.3073244,10.537374 14.0148588,10.6183626 13.7099237,10.6183626 C13.4599634,10.6183626 13.2183866,10.5639235 12.9985424,10.4608493 L12.8379427,10.3745153 L11.137645,11.8844122 C11.2816527,12.1354389 11.3587786,12.4205573 11.3587786,12.7175992 C11.3587786,13.6436145 10.6054046,14.3969885 9.67938931,14.3969885 C8.75337405,14.3969885 8,13.6436145 8,12.7175992 C8,11.791584 8.75337405,11.0382099 9.67938931,11.0382099 C9.92934962,11.0382099 10.1709264,11.092649 10.3907706,11.1957232 L10.5513702,11.2820573 L12.2516679,9.77216031 C12.1076603,9.52113359 12.0305344,9.23601527 12.0305344,8.93897328 C12.0305344,8.01295802 12.7839084,7.25958397 13.7099237,7.25958397 C14.6359389,7.25958397 15.389313,8.01295802 15.389313,8.93897328 C15.389313,9.18288779 15.3374803,9.4188487 15.239189,9.63445273 L15.1568435,9.79214504 L16.6353779,11.2706794 C16.8911489,11.1191985 17.1836145,11.0382099 17.4885496,11.0382099 C17.7362931,11.0382099 17.9758681,11.0916011 18.1942048,11.1928588 L18.353771,11.2776908 L21.3245267,8.51967176 C21.1778321,8.26683969 21.0992786,7.97911832 21.0992786,7.67938931 C21.0992786,6.75337405 21.8526527,6 22.7786679,6 Z M17.4885496,11.8779046 C17.0248702,11.8779046 16.648855,12.2545076 16.648855,12.7175992 C16.648855,13.1806069 17.025542,13.5572939 17.4885496,13.5572939 C17.9515573,13.5572939 18.3282443,13.1806069 18.3282443,12.7175992 C18.3282443,12.2538359 17.952271,11.8779046 17.4885496,11.8779046 Z M9.67938931,11.8779046 C9.21638168,11.8779046 8.83969466,12.2545916 8.83969466,12.7175992 C8.83969466,13.1806069 9.21638168,13.5572939 9.67938931,13.5572939 C10.1423969,13.5572939 10.519084,13.1806069 10.519084,12.7175992 C10.519084,12.2538359 10.1431107,11.8779046 9.67938931,11.8779046 Z M13.7099237,8.09927863 C13.246916,8.09927863 12.870229,8.47596565 12.870229,8.93897328 C12.870229,9.40273664 13.2462023,9.77866794 13.7099237,9.77866794 C14.1745267,9.77866794 14.5496183,9.40114122 14.5496183,8.93897328 C14.5496183,8.47596565 14.1729313,8.09927863 13.7099237,8.09927863 Z M22.778626,6.83973664 C22.3156183,6.83973664 21.9389313,7.21642366 21.9389313,7.6794313 C21.9389313,7.87596183 22.0063168,8.06233206 22.1301298,8.21246947 C22.1841641,8.24861832 22.2170382,8.28543893 22.2456298,8.32809542 C22.3953893,8.45178244 22.5818015,8.51912595 22.778626,8.51912595 C23.2416336,8.51912595 23.6183206,8.14243893 23.6183206,7.6794313 C23.6183206,7.21642366 23.2416336,6.83973664 22.778626,6.83973664 Z" id="Combined-Shape" fill="#000000" fill-rule="nonzero"></path>
    </g>
</svg>