<?xml version="1.0" encoding="UTF-8"?>
<svg width="32px" height="32px" viewBox="0 0 32 32" version="1.1" xmlns="http://www.w3.org/2000/svg" xmlns:xlink="http://www.w3.org/1999/xlink">
    <!-- Generator: Sketch 61.2 (89653) - https://sketch.com -->
    <title>skill-icon</title>
    <desc>Created with Sketch.</desc>
    <g id="skill-icon" stroke="none" stroke-width="1" fill="none" fill-rule="evenodd">
        <path d="M27.8518519,0.118518519 C28.9185185,0.118518519 29.9851852,0.533333333 30.7555556,1.24444444 C31.5259259,2.01481481 31.9407407,3.08148148 31.8814815,4.14814815 L31.8814815,4.14814815 L31.5259259,13.3333333 C31.4666667,14.8740741 30.8148148,16.237037 29.7481481,17.3037037 L29.7481481,17.3037037 L16.5333333,30.5185185 C15.5851852,31.4074074 14.4,31.8814815 13.2148148,31.8814815 C12.0296296,31.8814815 10.7851852,31.4074074 9.8962963,30.5185185 L9.8962963,30.5185185 L1.48148148,22.1037037 C-0.355555556,20.2666667 -0.355555556,17.3037037 1.48148148,15.4666667 L1.48148148,15.4666667 L14.7555556,2.19259259 C15.762963,1.18518519 17.1851852,0.533333333 18.6666667,0.414814815 L18.6666667,0.414814815 Z M27.5179764,2.23477701 L19.0816333,2.23477701 C18.0149666,2.35329553 17.0668184,2.76811034 16.2964481,3.53848071 L16.2964481,3.53848071 L3.08163325,16.7532955 C1.95570733,17.8792215 1.86777052,19.2544492 2.99369645,20.3803752 L2.99369645,20.3803752 L11.4085113,28.79519 C12.5344372,29.9211159 13.6632889,29.9825071 14.7892148,28.8565812 L14.7892148,28.8565812 L27.8142727,16.0613912 C28.584643,15.3502801 29.0587171,14.3428727 29.1179764,13.276206 L29.1179764,13.276206 L29.7698282,4.48662886 C29.7698282,3.89403627 29.5327912,3.30144368 29.1179764,2.88662886 C28.7031616,2.41255479 28.110569,2.23477701 27.5179764,2.23477701 L27.5179764,2.23477701 Z M22.6962963,5.03703704 C25.0666667,5.03703704 26.962963,6.99259259 26.962963,9.3037037 C26.962963,11.6148148 25.0074074,13.5703704 22.6962963,13.5703704 C20.3851852,13.5703704 18.4296296,11.6148148 18.4296296,9.3037037 C18.4296296,6.99259259 20.3259259,5.03703704 22.6962963,5.03703704 Z M22.6962963,6.87407407 C21.3333333,6.87407407 20.2074074,8 20.2074074,9.36296296 C20.2074074,10.7259259 21.3333333,11.8518519 22.6962963,11.8518519 C24.0592593,11.8518519 25.1851852,10.7259259 25.1851852,9.36296296 C25.1851852,8 24.0592593,6.87407407 22.6962963,6.87407407 Z" id="Combined-Shape" fill="#000000" fill-rule="nonzero"></path>
    </g>
</svg>