<?xml version="1.0" encoding="UTF-8"?>
<svg width="32px" height="32px" viewBox="0 0 32 32" version="1.1" xmlns="http://www.w3.org/2000/svg" xmlns:xlink="http://www.w3.org/1999/xlink">
    <!-- Generator: Sketch 61.2 (89653) - https://sketch.com -->
    <title>twitter-footer-icon</title>
    <desc>Created with Sketch.</desc>
    <g id="twitter-footer-icon" stroke="none" stroke-width="1" fill="none" fill-rule="evenodd">
        <path d="M32,7.41035768 C29.9870606,7.50081178 30.0310059,7.49343262 29.8034668,7.51199948 L30.9956055,4.19257201 C30.9956055,4.19257201 27.2744141,5.52724609 26.3310547,5.76599733 C23.8535156,3.59486081 20.1708984,3.4989319 17.5380859,5.07664186 C15.3820801,6.36894531 14.2248535,8.5881653 14.6108399,11.1820557 C10.4147949,10.6143372 6.8793945,8.67504883 4.08813475,5.40584714 L3.20532225,4.37205202 L2.54565431,5.55319212 C1.71191406,7.04568483 1.43505862,8.75217285 1.76586912,10.3582092 C1.90161131,11.017096 2.13232425,11.6455139 2.45190431,12.2339417 L1.69458006,11.947821 L1.60473631,13.1815674 C1.51367187,14.4348327 1.94165037,15.8978089 2.74975587,17.0946594 C2.97729494,17.43172 3.27026369,17.8018677 3.64160156,18.1670166 L3.25024412,18.1084595 L3.72778319,19.5221618 C4.35546875,21.3795654 5.65917969,22.8165954 7.35107425,23.615448 C5.66137694,24.314563 4.29638675,24.7606445 2.05273437,25.4802307 L-7.63833441e-14,26.1381653 L1.89599612,27.1488708 C2.6188965,27.5342529 5.17333987,28.8213196 7.69726562,29.2074158 C13.3076172,30.0653015 19.6242676,29.3666626 23.876709,25.6325745 C27.4584961,22.4873901 28.6337891,18.0134827 28.3896484,13.3577148 C28.3527832,12.652887 28.5507812,11.9801941 28.9472656,11.4638916 C29.7414551,10.4300964 31.9951172,7.41726074 32,7.41035768 Z M27.4479981,10.3689209 C26.7895507,11.2260925 26.4597168,12.3208252 26.5187988,13.4510254 C26.7651367,18.1472595 25.4545899,21.7892273 22.623291,24.2752869 C19.315918,27.1795776 13.9812012,28.3195374 7.98754881,27.4028564 C6.90209962,27.2369446 5.78027344,26.8653686 4.85180662,26.4942688 C6.73291012,25.8632324 8.18554687,25.3007507 10.5314941,24.2181579 L13.8063965,22.7068604 L10.1906738,22.4812012 C8.45874025,22.3731323 7.01660156,21.5547607 6.13012694,20.2260376 C6.60083006,20.1993775 7.0546875,20.1251099 7.50659181,20.0022827 L10.9550781,19.0658447 L7.47778319,18.2355713 C5.78808594,17.8320984 4.82495119,16.8463867 4.31445312,16.0903809 C3.97924806,15.5935974 3.76025387,15.0846741 3.62890625,14.6155029 C3.97753906,14.7066712 4.38403319,14.7716553 5.03955075,14.8349732 L8.25805662,15.1453736 L5.70800781,13.2058471 C3.8706055,11.8085693 3.13427737,9.70932005 3.67407225,7.69124147 C9.40844725,13.4903015 16.1413574,13.0544556 16.8190918,13.2077514 C16.6699219,11.7950012 16.6660156,11.7916687 16.6269531,11.6571777 C15.7590332,8.66576537 17.6611328,7.14685059 18.519043,6.63269043 C20.3110351,5.55890501 23.1555176,5.39703978 25.1257324,7.16613158 C25.5512695,7.5479431 26.126709,7.69814453 26.6652832,7.5677002 C27.1486816,7.45058594 27.5454101,7.32656862 27.9338379,7.19160156 L27.1252441,9.44295651 L28.1574707,9.44367064 C27.9626465,9.69837038 27.7290039,10.0032959 27.4479981,10.3689209 Z" id="Shape" fill="#000000" fill-rule="nonzero"></path>
    </g>
</svg>